<svg xmlns="http://www.w3.org/2000/svg" version="1.1" xmlns:xlink="http://www.w3.org/1999/xlink" xmlns:svgjs="http://svgjs.dev/svgjs" width="100%" height="100%" viewBox="0 0 1000 600"><rect width="1000" height="600" x="0" y="0" fill="#2b3252"/><g><rect width="333.3333333333333" height="333.3333333333333" y="174.18066212903148" fill="#fddd00" transform="matrix(0.8225935273376789,0,0,0.8225935273376789,0,19.62121930212747)" x="151.95843505859372"/><path d="M253.99582335740152 415.8473232993566L253.99582335740152 415.8473232993566Q233.25440301697876 415.8473232993566 218.15023724470637 406.6867846261123Q203.04607147243397 397.52624595286795 194.77401313873506 380.7676685138558Q186.5019548050362 364.0090910748437 186.5019548050362 340.8473277404868L186.5019548050362 340.8473277404868Q186.5019548050362 317.68556440612986 195.2029346819639 300.9269869671177Q203.9039145588916 284.1684095281055 219.59018813983172 275.0078708548612Q235.24582446768406 265.8473321816169 255.5276860117902 265.8473321816169L255.5276860117902 265.8473321816169Q277.1575866917584 265.8473321816169 290.72988980964215 273.9968415029647Q304.2715556744381 282.1769880774002 312.66616302048806 299.1500262880268L312.66616302048806 299.1500262880268L296.5509678963191 307.9735551773056Q291.71028190845095 295.4122814113184 281.2323413524323 288.88654650362264Q270.75440079641373 282.39144884901464 255.5276860117902 282.39144884901464L255.5276860117902 282.39144884901464Q240.7605300234833 282.39144884901464 229.39410912791928 289.34610529993927Q218.02768823235527 296.3007617508639 211.53259057774724 309.413506072431Q205.00685567005146 322.5262503939981 205.00685567005146 340.8473277404868L205.00685567005146 340.8473277404868Q205.00685567005146 359.16840508697544 210.64411023820182 372.28114940854255Q216.28136480635217 385.39389373010965 227.402687677214 392.3485501810343Q238.5546478011636 399.3032066319589 254.63920567224477 399.3032066319589L254.63920567224477 399.3032066319589Q263.7078325862258 399.3032066319589 271.520332123608 396.9747753972881Q279.3634689140781 394.6769814157051 285.21518425384284 390.05075619945126Q291.0362623405199 385.39389373010965 294.3450856739994 378.3473255199217Q297.653909007479 371.30075730973374 297.653909007479 361.803208852524L297.653909007479 361.803208852524L297.653909007479 356.71742483995354L251.3303823387652 356.71742483995354L251.3303823387652 340.1733081725557L313.76910413164785 340.1733081725557L313.76910413164785 413.6414410770369L299.8597912297987 413.6414410770369L299.001948143341 386.49683484126945L302.73969302004946 387.1708544092005Q297.0105266926357 400.83506928634756 284.663713698263 408.34119629285215Q272.2862634508024 415.8473232993566 253.99582335740152 415.8473232993566ZM397.3781678081822 301.1414477387321L397.3781678081822 301.1414477387321Q413.0338041360345 301.1414477387321 425.04360734644183 307.9735551773056Q437.0840478099368 314.8056626158792 443.91615524851034 327.73458341891967Q450.74826268708387 340.63286696887235 450.74826268708387 358.4943855190444L450.74826268708387 358.4943855190444Q450.74826268708387 376.3559040692164 443.91615524851034 389.2541876191691Q437.0840478099368 402.18310842220956 425.04360734644183 409.0152158607831Q413.0338041360345 415.8473232993566 397.3781678081822 415.8473232993566L397.3781678081822 415.8473232993566Q381.9369922519443 415.8473232993566 369.80464002918586 409.0152158607831Q357.67228780642756 402.18310842220956 350.84018036785403 389.2541876191691Q343.9774356761927 376.3559040692164 343.9774356761927 358.4943855190444L343.9774356761927 358.4943855190444Q343.9774356761927 340.63286696887235 350.84018036785403 327.73458341891967Q357.67228780642756 314.8056626158792 369.80464002918586 307.9735551773056Q381.9369922519443 301.1414477387321 397.3781678081822 301.1414477387321ZM397.3781678081822 316.36816252335564L397.3781678081822 316.36816252335564Q386.13429592496925 316.36816252335564 378.16861012214804 321.4233092828383Q370.2335615724147 326.50909329540866 365.9443461401264 335.8840927402674Q361.62449345475034 345.2590921851262 361.62449345475034 358.4943855190444L361.62449345475034 358.4943855190444Q361.62449345475034 371.51521808134817 365.9443461401264 380.98212928547025Q370.2335615724147 390.4796777426801 378.16861012214804 395.56546175525045Q386.13429592496925 400.62060851473314 397.3781678081822 400.62060851473314L397.3781678081822 400.62060851473314Q408.6220396913951 400.62060851473314 416.55708824112844 395.56546175525045Q424.4921367908619 390.4796777426801 428.81198947623795 380.98212928547025Q433.10120490852626 371.51521808134817 433.10120490852626 358.4943855190444L433.10120490852626 358.4943855190444Q433.10120490852626 345.2590921851262 428.81198947623795 335.8840927402674Q424.4921367908619 326.50909329540866 416.55708824112844 321.4233092828383Q408.6220396913951 316.36816252335564 397.3781678081822 316.36816252335564Z " fill="#00add8" transform="matrix(0.8225935273376789,0,0,0.8225935273376789,0,19.62121930212747)"/><path d="M644.5069416414686 287.7609100188437L644.5069416414686 287.7609100188437L647.350856947117 299.0263419660246Q647.1965359615392 299.0263419660246 646.8878939903835 299.0263419660246Q646.5572061641454 299.0263419660246 646.2485641929896 299.0263419660246L646.2485641929896 299.0263419660246Q638.4663773488511 299.0263419660246 634.2556190280849 302.11276167758103Q630.0669065624012 305.22122724421996 630.0669065624012 312.0333964647266L630.0669065624012 312.0333964647266L622.2847197182624 308.06514254986837Q622.2847197182624 301.870257271673 625.1286350239109 297.28471941450346Q627.9945961846419 292.6771357022514 632.9108218680495 290.20799993300625Q637.8270475514572 287.7609100188437 643.713290858497 287.7609100188437L643.713290858497 287.7609100188437Q643.8676118440748 287.7609100188437 644.1101162499828 287.7609100188437Q644.3526206558907 287.7609100188437 644.5069416414686 287.7609100188437ZM597.1965366343253 371.5572051876003L620.366730326081 371.5572051876003Q631.6542081283444 371.5572051876003 638.0034143921176 376.71593527691607Q644.3526206558907 381.87466536623174 644.3526206558907 390.45050299334207L644.3526206558907 390.45050299334207Q644.3526206558907 398.23268983748073 639.1938905665751 403.9425663038601Q634.0351604772594 409.6524427702394 625.3711394298189 412.7609083368784Q616.7291642374609 415.84732804843486 605.9266952470135 415.84732804843486L605.9266952470135 415.84732804843486Q587.209764281932 415.84732804843486 577.9064134370977 409.49812178466163Q568.625108447346 403.1489155208884 568.625108447346 394.2644359226225L568.625108447346 394.2644359226225Q568.625108447346 387.9152296588493 572.8358667681122 382.9108205551114Q577.0466250888784 377.9064114513735 587.0333974412716 377.26708165397963L587.0333974412716 377.26708165397963L585.9311046871444 379.64803400289463Q580.5298701919206 378.2370992776117 576.8041206829704 374.81999173981706Q573.0783711740202 371.4028842020225 573.0783711740202 364.8993569526715L573.0783711740202 364.8993569526715Q573.0783711740202 358.3958297033205 577.9064134370977 353.70006257073817Q582.7565015552578 349.0263412932385 592.2803109509176 347.9020026840286L592.2803109509176 347.9020026840286L600.7018275924501 352.20094442512516L599.1145260265067 352.20094442512516Q591.3323391823682 352.9945952080967 588.0695526301514 356.08101491965317Q584.8288119330172 359.18948048629215 584.8288119330172 362.8270465749122L584.8288119330172 362.8270465749122Q584.8288119330172 367.2803093015864 588.0695526301514 369.4187572445934Q591.3323391823682 371.5572051876003 597.1965366343253 371.5572051876003L597.1965366343253 371.5572051876003ZM605.7723742614356 405.22122589864773L605.7723742614356 405.22122589864773Q614.9875416859398 405.22122589864773 620.9399225582271 403.3032365064663Q626.8923034305145 401.4072929693673 629.7362187361629 398.3870108230585Q632.602179896894 395.36672867674974 632.602179896894 391.8834835737075L632.602179896894 391.8834835737075Q632.602179896894 387.5845418326111 629.1850723590993 385.0492684981184Q625.7679648213046 382.5139951636256 616.8834852230387 382.5139951636256L616.8834852230387 382.5139951636256L592.4346319364954 382.5139951636256Q587.36408526751 382.5139951636256 583.8587943093851 385.1374519184485Q580.3755492063428 387.7609086732715 580.3755492063428 392.34644653044097L580.3755492063428 392.34644653044097Q580.3755492063428 398.23268983748073 587.121580861602 401.71593494052297Q593.867612516861 405.22122589864773 605.7723742614356 405.22122589864773ZM604.6700815073083 300.7679645175457L604.6700815073083 300.7679645175457Q614.1938909029681 300.7679645175457 621.5572065005384 304.1850720553403Q628.9425679531913 307.6021795931349 633.0651428536274 313.6206980306699Q637.209763609146 319.6612623232875 637.209763609146 327.59777015300403L637.209763609146 327.59777015300403Q637.209763609146 335.3799569971427 633.0651428536274 341.4866588550078Q628.9425679531913 347.59336071287305 621.5572065005384 351.0104682506676Q614.1938909029681 354.42757578846226 604.6700815073083 354.42757578846226L604.6700815073083 354.42757578846226Q588.9513868334532 354.42757578846226 580.5298701919206 346.8878933502316Q572.1303994054707 339.3482109120009 572.1303994054707 327.59777015300403L572.1303994054707 327.59777015300403Q572.1303994054707 319.6612623232875 576.3191118711544 313.6206980306699Q580.5298701919206 307.6021795931349 587.8270482242434 304.1850720553403Q595.1462721116485 300.7679645175457 604.6700815073083 300.7679645175457ZM604.6700815073083 311.08542469617714L604.6700815073083 311.08542469617714Q596.4028858513537 311.08542469617714 590.8473303705522 315.60482498809904Q585.2917748897506 320.12422528002094 585.2917748897506 327.59777015300403L585.2917748897506 327.59777015300403Q585.2917748897506 334.8949481853266 590.8473303705522 339.5025318975787Q596.4028858513537 344.1101156098308 604.6700815073083 344.1101156098308L604.6700815073083 344.1101156098308Q612.9152313081805 344.1101156098308 618.4707867889821 339.5025318975787Q624.0263422697836 334.8949481853266 624.0263422697836 327.59777015300403L624.0263422697836 327.59777015300403Q624.0263422697836 320.12422528002094 618.4707867889821 315.60482498809904Q612.9152313081805 311.08542469617714 604.6700815073083 311.08542469617714ZM694.9699039254159 300.7679645175457L694.9699039254159 300.7679645175457Q706.2573817276794 300.7679645175457 714.8993569200373 305.6841902009534Q723.5413321123953 310.60041588436115 728.4796036508857 319.90376672919547Q733.3958293342934 329.18507171894726 733.3958293342934 342.0378052320715L733.3958293342934 342.0378052320715Q733.3958293342934 354.8905387451957 728.4796036508857 364.1718437349475Q723.5413321123953 373.4751945797818 714.8993569200373 378.3914202631895Q706.2573817276794 383.3076459465973 694.9699039254159 383.3076459465973L694.9699039254159 383.3076459465973Q683.8587929638128 383.3076459465973 675.1286343511248 378.3914202631895Q666.3984757384366 373.4751945797818 661.4822500550289 364.1718437349475Q656.5660243716212 354.8905387451957 656.5660243716212 342.0378052320715L656.5660243716212 342.0378052320715Q656.5660243716212 329.18507171894726 661.4822500550289 319.90376672919547Q666.3984757384366 310.60041588436115 675.1286343511248 305.6841902009534Q683.8587929638128 300.7679645175457 694.9699039254159 300.7679645175457ZM694.9699039254159 311.724754493571L694.9699039254159 311.724754493571Q686.8790751101216 311.724754493571 681.1691986437423 315.36232058219105Q675.4593221773629 319.0219325258937 672.350856610724 325.7679641811527Q669.2644368991677 332.5139958364117 669.2644368991677 342.0378052320715L669.2644368991677 342.0378052320715Q669.2644368991677 351.4072936421535 672.350856610724 358.21946286266007Q675.4593221773629 365.0536779382493 681.1691986437423 368.71328988195194Q686.8790751101216 372.35085597057196 694.9699039254159 372.35085597057196L694.9699039254159 372.35085597057196Q703.0827785957928 372.35085597057196 708.7926550621722 368.71328988195194Q714.5025315285517 365.0536779382493 717.588951240108 358.21946286266007Q720.6974168067469 351.4072936421535 720.6974168067469 342.0378052320715L720.6974168067469 342.0378052320715Q720.6974168067469 332.5139958364117 717.588951240108 325.7679641811527Q714.5025315285517 319.0219325258937 708.7926550621722 315.36232058219105Q703.0827785957928 311.724754493571 694.9699039254159 311.724754493571ZM756.7203440116267 265.8473300667931L769.4187565391732 265.8473300667931L769.4187565391732 361.57043283520704Q769.4187565391732 367.58895127274207 771.6453879025104 369.9037660564094Q773.8720192658474 372.1965349849942 778.7882449492553 372.1965349849942L778.7882449492553 372.1965349849942Q781.9628480811417 372.1965349849942 784.035158458901 371.7115261731782Q786.0854229815778 371.2485632164447 789.5907139397026 369.96990362165707L789.5907139397026 369.96990362165707L787.5184035619433 381.08101458326007Q784.9831302274505 382.20535319246994 781.9628480811417 382.7564995695336Q778.9425659348329 383.3076459465973 775.7679628029463 383.3076459465973L775.7679628029463 383.3076459465973Q766.0898324217088 383.3076459465973 761.4161111442091 378.0607324369513Q756.7203440116267 372.83586478238794 756.7203440116267 362.0333957919405L756.7203440116267 362.0333957919405L756.7203440116267 265.8473300667931ZM852.2891257944628 352.35526541070294L852.2891257944628 330.4416854586524Q852.2891257944628 321.5572058603864 847.5272210966331 316.7291635973089Q842.7653163988031 311.8790754791488 834.0351577861151 311.8790754791488L834.0351577861151 311.8790754791488Q825.7679621301603 311.8790754791488 820.0580856637808 315.45050400252126Q814.3482091974016 319.0219325258937 811.6365690222484 326.95844035561015L811.6365690222484 326.95844035561015L801.3191088436171 320.6092340918369Q804.4937119755035 311.724754493571 813.0695496026138 306.23533657801704Q821.6453872297242 300.7679645175457 834.3437997572706 300.7679645175457L834.3437997572706 300.7679645175457Q842.919637384381 300.7679645175457 849.908173445548 303.7000632435243Q856.8746636516324 306.6321619695029 860.9311009868208 312.58454284179027Q864.9875383220093 318.5369237140776 864.9875383220093 327.9064121241596L864.9875383220093 327.9064121241596L864.9875383220093 366.33233753303693Q864.9875383220093 372.0422139994163 871.0060567595443 372.0422139994163L871.0060567595443 372.0422139994163Q874.0263389058531 372.0422139994163 876.892300066584 371.2485632164447L876.892300066584 371.2485632164447L876.2529702691901 381.23533556883797Q873.0783671373036 382.8226371347812 867.9857746132355 382.8226371347812L867.9857746132355 382.8226371347812Q863.400236756066 382.8226371347812 859.7406248123633 381.08101458326007Q856.0810128686609 379.33939203173895 854.0307483459841 375.7679635083666Q851.9584379682248 372.1965349849942 851.9584379682248 366.7953004897704L851.9584379682248 366.7953004897704L851.9584379682248 365.2079989238272L855.1330411001114 365.69300773564316Q853.2370975630123 371.8878930138385 848.6295138507602 375.7679635083666Q844.0219301385083 379.64803400289463 838.3120536721289 381.47783997474596Q832.6021772057494 383.3076459465973 827.0466217249478 383.3076459465973L827.0466217249478 383.3076459465973Q820.0580856637808 383.3076459465973 814.0175213711633 380.9266935976823Q807.9990029336283 378.5457412487674 804.4275744102559 373.6956531306073Q800.8561458868836 368.8676108675297 800.8561458868836 361.72475382078494L800.8561458868836 361.72475382078494Q800.8561458868836 352.84027422251893 806.8085267591708 347.0422143358094Q812.7609076314583 341.2441544490998 823.3870097812454 339.1718440713405L823.3870097812454 339.1718440713405L854.8243991289556 332.9990046482277L854.8243991289556 343.47078581243693L829.2732530882851 348.6956534670003Q821.4910662441463 350.2829550329436 817.677133314866 353.1489161936746Q813.8632003855856 356.0148773544055 813.8632003855856 361.08542402339106L813.8632003855856 361.08542402339106Q813.8632003855856 366.00164970679873 817.765316735196 369.1101152734377Q821.6453872297242 372.1965349849942 828.7882442764691 372.1965349849942L828.7882442764691 372.1965349849942Q833.3958279887212 372.1965349849942 837.6065863094874 371.00605881053673Q841.7952987751711 369.81558263607917 845.1462687477182 367.34644686683407Q848.4751928651825 364.8993569526715 850.3711364022814 361.17360744372127Q852.2891257944628 357.4258120796885 852.2891257944628 352.35526541070294L852.2891257944628 352.35526541070294ZM908.4619645447896 381.72034438065396L895.7635520172431 381.72034438065396L895.7635520172431 302.355266083489L906.8746629788465 302.355266083489L907.9990015880561 320.12422528002094L905.9266912102968 318.3826027284998Q908.4619645447896 312.0333964647266 912.7609062858861 308.1533259701986Q917.0378021718999 304.25120962058793 922.6815410730316 302.5095870690668Q928.3032341190809 300.7679645175457 934.3437984116985 300.7679645175457L934.3437984116985 300.7679645175457Q942.9196360388088 300.7679645175457 949.9081720999758 304.03075106976246Q956.8746623060603 307.2714917668967 961.0854206268265 313.95138585690813Q965.2961789475927 320.6092340918369 965.2961789475927 330.9266942704684L965.2961789475927 330.9266942704684L965.2961789475927 381.72034438065396L952.5977664200462 381.72034438065396L952.5977664200462 335.3799569971427Q952.5977664200462 322.19653565778026 946.9540275189146 317.0378055684646Q941.3323344728655 311.8790754791488 933.0651388169107 311.8790754791488L933.0651388169107 311.8790754791488Q927.3552623505315 311.8790754791488 921.645385884152 314.5686697992194Q915.9355094177726 317.2803099743726 912.2097599088223 323.2988284119075Q908.4619645447896 329.33939270452515 908.4619645447896 339.5025318975787L908.4619645447896 339.5025318975787L908.4619645447896 381.72034438065396ZM1060.8429148753462 287.7609100188437L1060.8429148753462 287.7609100188437L1063.708876036077 299.0263419660246Q1063.5545550504994 299.0263419660246 1063.223867224261 299.0263419660246Q1062.9152252531057 299.0263419660246 1062.60658328195 299.0263419660246L1062.60658328195 299.0263419660246Q1054.8243964378112 299.0263419660246 1050.613638117045 302.11276167758103Q1046.4028797962787 305.22122724421996 1046.4028797962787 312.0333964647266L1046.4028797962787 312.0333964647266L1038.62069295214 308.06514254986837Q1038.62069295214 301.870257271673 1041.4866541128708 297.28471941450346Q1044.3526152736022 292.6771357022514 1049.2688409570096 290.20799993300625Q1054.1850666404175 287.7609100188437 1060.0492640923744 287.7609100188437L1060.0492640923744 287.7609100188437Q1060.225630933035 287.7609100188437 1060.4460894838603 287.7609100188437Q1060.6885938897685 287.7609100188437 1060.8429148753462 287.7609100188437ZM1013.5545557232855 371.5572051876003L1036.724749415041 371.5572051876003Q1047.9901813622218 371.5572051876003 1054.3393876259952 376.71593527691607Q1060.6885938897685 381.87466536623174 1060.6885938897685 390.45050299334207L1060.6885938897685 390.45050299334207Q1060.6885938897685 398.23268983748073 1055.5298638004529 403.9425663038601Q1050.3711337111372 409.6524427702394 1041.729158518779 412.7609083368784Q1033.0651374713384 415.84732804843486 1022.2847143359737 415.84732804843486L1022.2847143359737 415.84732804843486Q1003.5457375158097 415.84732804843486 994.2644325260579 409.49812178466163Q984.9831275363061 403.1489155208884 984.9831275363061 394.2644359226225L984.9831275363061 394.2644359226225Q984.9831275363061 387.9152296588493 989.1938858570724 382.9108205551114Q993.382598322756 377.9064114513735 1003.3914165302318 377.26708165397963L1003.3914165302318 377.26708165397963L1002.2891237761047 379.64803400289463Q996.8878892808808 378.2370992776117 993.1621397719306 374.81999173981706Q989.4143444078978 371.4028842020225 989.4143444078978 364.8993569526715L989.4143444078978 364.8993569526715Q989.4143444078978 358.3958297033205 994.2644325260579 353.70006257073817Q999.114520644218 349.0263412932385 1008.6383300398778 347.9020026840286L1008.6383300398778 347.9020026840286L1017.0378008263277 352.20094442512516L1015.4504992603844 352.20094442512516Q1007.6683124162458 352.9945952080967 1004.4275717191116 356.08101491965317Q1001.1647851668948 359.18948048629215 1001.1647851668948 362.8270465749122L1001.1647851668948 362.8270465749122Q1001.1647851668948 367.2803093015864 1004.4275717191116 369.4187572445934Q1007.6683124162458 371.5572051876003 1013.5545557232855 371.5572051876003L1013.5545557232855 371.5572051876003ZM1022.1303933503958 405.22122589864773L1022.1303933503958 405.22122589864773Q1031.3235149198176 405.22122589864773 1037.2758957921046 403.3032365064663Q1043.228276664392 401.4072929693673 1046.094237825123 398.3870108230585Q1048.9381531307718 395.36672867674974 1048.9381531307718 391.8834835737075L1048.9381531307718 391.8834835737075Q1048.9381531307718 387.5845418326111 1045.5430914480594 385.0492684981184Q1042.125983910265 382.5139951636256 1033.241504311999 382.5139951636256L1033.241504311999 382.5139951636256L1008.7926510254557 382.5139951636256Q1003.7000585013876 382.5139951636256 1000.2168133983454 385.1374519184485Q996.7335682953031 387.7609086732715 996.7335682953031 392.34644653044097L996.7335682953031 392.34644653044097Q996.7335682953031 398.23268983748073 1003.4795999505621 401.71593494052297Q1010.2256316058211 405.22122589864773 1022.1303933503958 405.22122589864773ZM1021.006054741186 300.7679645175457L1021.006054741186 300.7679645175457Q1030.5298641368458 300.7679645175457 1037.9152255894987 304.1850720553403Q1045.3005870421516 307.6021795931349 1049.4231619425877 313.6206980306699Q1053.5457368430239 319.6612623232875 1053.5457368430239 327.59777015300403L1053.5457368430239 327.59777015300403Q1053.5457368430239 335.3799569971427 1049.4231619425877 341.4866588550078Q1045.3005870421516 347.59336071287305 1037.9152255894987 351.0104682506676Q1030.5298641368458 354.42757578846226 1021.006054741186 354.42757578846226L1021.006054741186 354.42757578846226Q1005.2873600673307 354.42757578846226 996.8878892808808 346.8878933502316Q988.4663726393484 339.3482109120009 988.4663726393484 327.59777015300403L988.4663726393484 327.59777015300403Q988.4663726393484 319.6612623232875 992.6771309601146 313.6206980306699Q996.8878892808808 307.6021795931349 1004.1850673132036 304.1850720553403Q1011.4822453455262 300.7679645175457 1021.006054741186 300.7679645175457ZM1021.006054741186 311.08542469617714L1021.006054741186 311.08542469617714Q1012.7609049403139 311.08542469617714 1007.2053494595124 315.60482498809904Q1001.6497939787108 320.12422528002094 1001.6497939787108 327.59777015300403L1001.6497939787108 327.59777015300403Q1001.6497939787108 334.8949481853266 1007.2053494595124 339.5025318975787Q1012.7609049403139 344.1101156098308 1021.006054741186 344.1101156098308L1021.006054741186 344.1101156098308Q1029.2732503971406 344.1101156098308 1034.8288058779422 339.5025318975787Q1040.3843613587437 334.8949481853266 1040.3843613587437 327.59777015300403L1040.3843613587437 327.59777015300403Q1040.3843613587437 320.12422528002094 1034.8288058779422 315.60482498809904Q1029.2732503971406 311.08542469617714 1021.006054741186 311.08542469617714Z " fill="#00add8" transform="matrix(0.8225935273376789,0,0,0.8225935273376789,0,19.62121930212747)"/></g></svg>